<?xml version="1.0" encoding="iso-8859-1"?>
<!-- Generator: Adobe Illustrator 19.0.0, SVG Export Plug-In . SVG Version: 6.00 Build 0)  -->
<svg version="1.1" id="Capa_1" xmlns="http://www.w3.org/2000/svg" xmlns:xlink="http://www.w3.org/1999/xlink" x="0px" y="0px"
	 viewBox="0 0 512.001 512.001" style="enable-background:new 0 0 512.001 512.001;" xml:space="preserve">
<polygon style="fill:#F2C05C;" points="80.102,285.516 256,285.516 256,40.228 "/>
<polygon style="fill:#77D0D8;" points="450.374,311.281 256,311.281 256,101.946 "/>
<path style="fill:#5E5E5E;" d="M256,382.133c-4.447,0-8.052-3.605-8.052-8.052V18.761c0-4.447,3.605-8.052,8.052-8.052
	c4.447,0,8.052,3.605,8.052,8.052v355.32C264.052,378.528,260.448,382.133,256,382.133z"/>
<path style="fill:#CCCCCC;" d="M440.782,501.292H71.219c-8.994,0-17.217-5.083-21.237-13.13L1.217,390.571
	c-3.786-7.577,1.724-16.49,10.195-16.49H500.59c8.47,0,13.98,8.913,10.195,16.49l-48.765,97.592
	C457.999,496.208,449.777,501.292,440.782,501.292z"/>
<path style="fill:#AAAAAA;" d="M71.219,501.292h29.816L75.271,374.081h-63.86c-8.47,0-13.98,8.913-10.195,16.49l48.765,97.592
	C54.003,496.208,62.224,501.292,71.219,501.292z"/>
<g>
</g>
<g>
</g>
<g>
</g>
<g>
</g>
<g>
</g>
<g>
</g>
<g>
</g>
<g>
</g>
<g>
</g>
<g>
</g>
<g>
</g>
<g>
</g>
<g>
</g>
<g>
</g>
<g>
</g>
</svg>
